{"title":"The Wicker Man 2006 BDRip 1080p M2TS AC3","uid":6474277,"size":4280199214,"categoryP":"video","categoryS":"hd___movies","magnet":"?xt=urn:btih:e5a4f3c6c3a88470827c56911bcada0c3d4d171d&amp;dn=The+Wicker+Man+2006+BDRip+1080p+M2TS+AC3&amp;tr=udp%3A%2F%2Ftracker.openbittorrent.com%3A80&amp;tr=udp%3A%2F%2Fopen.demonii.com%3A1337&amp;tr=udp%3A%2F%2Ftracker.coppersurfer.tk%3A6969&amp;tr=udp%3A%2F%2Fexodus.desync.com%3A6969","seeders":0,"leechers":3,"uploader":"TPBAgri","files":-1,"time":1308260651,"description":"The Wicker Man is a 2006 remake of the 1973 British film of the same title. It was written and directed by Neil Labute, based on a screenplay by Anthony Shaffer, and stars Nicolas Cage and Ellen Burstyn.\n\n\nFormat : BDAV\nFormat/Info : Blu-ray Video\nFile size : 3.99 GiB\nDuration : 1h 41mn\nOverall bit rate : 5 599 Kbps\nMaximum Overall bit rate : 35.5 Mbps\n\nVideo\nID : 4113 (0x1011)\nMenu ID : 1 (0x1)\nFormat : AVC\nFormat/Info : Advanced Video Codec\nFormat profile : &lt;a class=&quot;__cf_email__&quot; href=&quot;/cdn-cgi/l/email-protection&quot; data-cfemail=&quot;c28aaba5aa828ef6ecf2&quot;&gt;[email&amp;#160;protected]&lt;/a&gt;&lt;script cf-hash='f9e31' type=&quot;text/javascript&quot;&gt;\n/* &lt;![CDATA[ */!function(){try{var t=&quot;currentScript&quot;in document?document.currentScript:function(){for(var t=document.getElementsByTagName(&quot;script&quot;),e=t.length;e--;)if(t[e].getAttribute(&quot;cf-hash&quot;))return t[e]}();if(t&amp;&amp;t.previousSibling){var e,r,n,i,c=t.previousSibling,a=c.getAttribute(&quot;data-cfemail&quot;);if(a){for(e=&quot;&quot;,r=parseInt(a.substr(0,2),16),n=2;a.length-n;n+=2)i=parseInt(a.substr(n,2),16)^r,e+=String.fromCharCode(i);e=document.createTextNode(e),c.parentNode.replaceChild(e,c)}}}catch(u){}}();/* ]]&gt; */&lt;/script&gt;\nFormat settings, CABAC : Yes\nFormat settings, ReFrames : 3 frames\nCodec ID : 27\nDuration : 1h 41mn\nBit rate mode : Variable\nBit rate : 4 720 Kbps\nNominal bit rate : 4 468 Kbps\nMaximum bit rate : 25.0 Mbps\nWidth : 1 920 pixels\nHeight : 1 080 pixels\nDisplay aspect ratio : 16:9\nFrame rate : 23.976 fps\nColor space : YUV\nChroma subsampling : 4:2:0\nBit depth : 8 bits\nScan type : Progressive\nBits/(Pixel*Frame) : 0.095\nStream size : 3.36 GiB (84%)\nWriting library : x264\n\nAudio\nID : 4352 (0x1100)\nMenu ID : 1 (0x1)\nFormat : AC-3\nFormat/Info : Audio Coding 3\nMode extension : CM (complete main)\nCodec ID : 129\nDuration : 1h 41mn\nBit rate mode : Constant\nBit rate : 640 Kbps\nChannel(s) : 6 channels\nChannel positions : Front: L C R, Side: L R, LFE\nSampling rate : 48.0 KHz\nBit depth : 16 bits\nCompression mode : Lossy\nStream size : 467 MiB (11%)\nLanguage : English\n\nText #1\nID : 4608 (0x1200)\nMenu ID : 1 (0x1)\nFormat : PGS\nCodec ID : 144\nLanguage : English\n\nText #2\nID : 4609 (0x1201)\nMenu ID : 1 (0x1)\nFormat : PGS\nCodec ID : 144\nLanguage : English\n\nText #3\nID : 4610 (0x1202)\nMenu ID : 1 (0x1)\nFormat : PGS\nCodec ID : 144\nLanguage : French\n\nText #4\nID : 4611 (0x1203)\nMenu ID : 1 (0x1)\nFormat : PGS\nCodec ID : 144\nLanguage : Spanish","torrent":{"xt":"urn:btih:e5a4f3c6c3a88470827c56911bcada0c3d4d171d","amp;dn":"The+Wicker+Man+2006+BDRip+1080p+M2TS+AC3","amp;tr":["udp%3A%2F%2Ftracker.openbittorrent.com%3A80","udp%3A%2F%2Fopen.demonii.com%3A1337","udp%3A%2F%2Ftracker.coppersurfer.tk%3A6969","udp%3A%2F%2Fexodus.desync.com%3A6969"],"infoHash":"e5a4f3c6c3a88470827c56911bcada0c3d4d171d","infoHashBuffer":{"type":"Buffer","data":[229,164,243,198,195,168,132,112,130,124,86,145,27,202,218,12,61,77,23,29]},"announce":[],"urlList":[]}}